<svg width="26" height="26" viewBox="0 0 26 26" fill="none" xmlns="http://www.w3.org/2000/svg">
<path d="M22.5 12.3743L13.5172 21.357C12.4168 22.4575 10.9242 23.0757 9.36796 23.0757C7.81168 23.0757 6.31914 22.4575 5.21869 21.357C4.11823 20.2566 3.5 18.764 3.5 17.2078C3.5 15.6515 4.11823 14.1589 5.21869 13.0585L14.2014 4.07572C14.9351 3.34208 15.9301 2.92993 16.9676 2.92993C18.0052 2.92993 19.0002 3.34208 19.7338 4.07572C20.4675 4.80936 20.8796 5.80439 20.8796 6.84191C20.8796 7.87943 20.4675 8.87445 19.7338 9.60809L10.7413 18.5909C10.3745 18.9577 9.87695 19.1638 9.35819 19.1638C8.83943 19.1638 8.34191 18.9577 7.97509 18.5909C7.60828 18.224 7.4022 17.7265 7.4022 17.2078C7.4022 16.689 7.60828 16.1915 7.97509 15.8247L16.2736 7.53589" stroke="#303030" stroke-width="1.6" stroke-linecap="round" stroke-linejoin="round"/>
</svg>
