<svg width="26" height="26" viewBox="0 0 26 26" fill="none" xmlns="http://www.w3.org/2000/svg">
<path d="M13 22.3866C13.9941 22.3866 14.8 21.5807 14.8 20.5866C14.8 19.5925 13.9941 18.7866 13 18.7866C12.0058 18.7866 11.2 19.5925 11.2 20.5866C11.2 21.5807 12.0058 22.3866 13 22.3866Z" fill="#303030"/>
<path d="M13 14.8034C13.9941 14.8034 14.8 13.9975 14.8 13.0034C14.8 12.0093 13.9941 11.2034 13 11.2034C12.0058 11.2034 11.2 12.0093 11.2 13.0034C11.2 13.9975 12.0058 14.8034 13 14.8034Z" fill="#303030"/>
<path d="M13 7.21999C13.9941 7.21999 14.8 6.41411 14.8 5.41999C14.8 4.42588 13.9941 3.62 13 3.62C12.0058 3.62 11.2 4.42588 11.2 5.41999C11.2 6.41411 12.0058 7.21999 13 7.21999Z" fill="#303030"/>
</svg>
