<svg width="26" height="26" viewBox="0 0 26 26" fill="none" xmlns="http://www.w3.org/2000/svg">
<path d="M24.9167 22.75V20.5834C24.9159 19.6232 24.5964 18.6905 24.0081 17.9317C23.4199 17.1729 22.5963 16.6309 21.6667 16.3909" stroke="#9E9F9F" stroke-width="1.6" stroke-linecap="round" stroke-linejoin="round"/>
<path d="M18.4167 22.75V20.5833C18.4167 19.4341 17.9601 18.3319 17.1475 17.5192C16.3348 16.7065 15.2326 16.25 14.0833 16.25H5.41667C4.2674 16.25 3.1652 16.7065 2.35254 17.5192C1.53988 18.3319 1.08334 19.4341 1.08334 20.5833V22.75" stroke="#9E9F9F" stroke-width="1.6" stroke-linecap="round" stroke-linejoin="round"/>
<path d="M17.3333 3.39087C18.2655 3.62953 19.0916 4.17163 19.6816 4.93171C20.2716 5.69178 20.5918 6.6266 20.5918 7.58879C20.5918 8.55097 20.2716 9.48579 19.6816 10.2459C19.0916 11.0059 18.2655 11.548 17.3333 11.7867" stroke="#9E9F9F" stroke-width="1.6" stroke-linecap="round" stroke-linejoin="round"/>
<path d="M9.75 11.9167C12.1432 11.9167 14.0833 9.97657 14.0833 7.58333C14.0833 5.1901 12.1432 3.25 9.75 3.25C7.35676 3.25 5.41666 5.1901 5.41666 7.58333C5.41666 9.97657 7.35676 11.9167 9.75 11.9167Z" stroke="#9E9F9F" stroke-width="1.6" stroke-linecap="round" stroke-linejoin="round"/>
</svg>
